<svg width="2540" height="1585" viewBox="0 0 2540 1585" fill="none" xmlns="http://www.w3.org/2000/svg">
<path d="M820.101 1067L1267 324.626L1713.9 1067H820.101Z" stroke="url(#paint0_radial_301_410)" stroke-width="45"/>
<path d="M1658.01 1062.8L794.86 1057.54L436.509 272.27L1658.01 1062.8Z" stroke="url(#paint1_radial_301_410)" stroke-width="45"/>
<path d="M2108.02 288.227L1738.82 1068.45L875.672 1061.74L2108.02 288.227Z" stroke="url(#paint2_radial_301_410)" stroke-width="45"/>
<path d="M818.063 1284V1476H791.437L693.844 1335.19H692.063V1476H663.094V1284H689.906L787.594 1425H789.375V1284H818.063ZM876.539 1476H845.789L914.883 1284H948.352L1017.45 1476H986.695L932.414 1318.87H930.914L876.539 1476ZM881.695 1400.81H981.445V1425.19H881.695V1400.81ZM1013.02 1308.94V1284H1161.61V1308.94H1101.7V1476H1072.83V1308.94H1013.02ZM1352.98 1380C1352.98 1400.5 1349.23 1418.12 1341.73 1432.87C1334.23 1447.56 1323.95 1458.87 1310.88 1466.81C1297.88 1474.69 1283.1 1478.62 1266.54 1478.62C1249.91 1478.62 1235.07 1474.69 1222.01 1466.81C1209.01 1458.87 1198.76 1447.53 1191.26 1432.78C1183.76 1418.03 1180.01 1400.44 1180.01 1380C1180.01 1359.5 1183.76 1341.91 1191.26 1327.22C1198.76 1312.47 1209.01 1301.16 1222.01 1293.28C1235.07 1285.34 1249.91 1281.37 1266.54 1281.37C1283.1 1281.37 1297.88 1285.34 1310.88 1293.28C1323.95 1301.16 1334.23 1312.47 1341.73 1327.22C1349.23 1341.91 1352.98 1359.5 1352.98 1380ZM1324.29 1380C1324.29 1364.37 1321.76 1351.22 1316.7 1340.53C1311.7 1329.78 1304.82 1321.66 1296.07 1316.16C1287.38 1310.59 1277.54 1307.81 1266.54 1307.81C1255.48 1307.81 1245.6 1310.59 1236.91 1316.16C1228.23 1321.66 1221.35 1329.78 1216.29 1340.53C1211.29 1351.22 1208.79 1364.37 1208.79 1380C1208.79 1395.62 1211.29 1408.81 1216.29 1419.56C1221.35 1430.25 1228.23 1438.37 1236.91 1443.94C1245.6 1449.44 1255.48 1452.19 1266.54 1452.19C1277.54 1452.19 1287.38 1449.44 1296.07 1443.94C1304.82 1438.37 1311.7 1430.25 1316.7 1419.56C1321.76 1408.81 1324.29 1395.62 1324.29 1380ZM1512.56 1284H1541.63V1410.28C1541.63 1423.72 1538.47 1435.62 1532.16 1446C1525.84 1456.31 1516.97 1464.44 1505.53 1470.37C1494.09 1476.25 1480.69 1479.19 1465.31 1479.19C1450 1479.19 1436.63 1476.25 1425.19 1470.37C1413.75 1464.44 1404.88 1456.31 1398.56 1446C1392.25 1435.62 1389.09 1423.72 1389.09 1410.28V1284H1418.06V1407.94C1418.06 1416.62 1419.97 1424.34 1423.78 1431.09C1427.66 1437.84 1433.13 1443.16 1440.19 1447.03C1447.25 1450.84 1455.63 1452.75 1465.31 1452.75C1475.06 1452.75 1483.47 1450.84 1490.53 1447.03C1497.66 1443.16 1503.09 1437.84 1506.84 1431.09C1510.66 1424.34 1512.56 1416.62 1512.56 1407.94V1284ZM1583.74 1476V1284H1652.18C1667.05 1284 1679.4 1286.56 1689.21 1291.69C1699.09 1296.81 1706.46 1303.91 1711.34 1312.97C1716.21 1321.97 1718.65 1332.37 1718.65 1344.19C1718.65 1355.94 1716.18 1366.28 1711.24 1375.22C1706.37 1384.09 1698.99 1391 1689.12 1395.94C1679.3 1400.87 1666.96 1403.34 1652.09 1403.34H1600.24V1378.41H1649.46C1658.84 1378.41 1666.46 1377.06 1672.34 1374.37C1678.27 1371.69 1682.62 1367.78 1685.37 1362.66C1688.12 1357.53 1689.49 1351.37 1689.49 1344.19C1689.49 1336.94 1688.09 1330.66 1685.27 1325.34C1682.52 1320.03 1678.18 1315.97 1672.24 1313.16C1666.37 1310.28 1658.65 1308.84 1649.09 1308.84H1612.71V1476H1583.74ZM1678.52 1389.38L1725.96 1476H1692.96L1646.46 1389.38H1678.52ZM1858.62 1334.44C1857.62 1325.56 1853.49 1318.69 1846.24 1313.81C1838.99 1308.87 1829.87 1306.41 1818.87 1306.41C1810.99 1306.41 1804.18 1307.66 1798.43 1310.16C1792.68 1312.59 1788.21 1315.97 1785.02 1320.28C1781.9 1324.53 1780.34 1329.37 1780.34 1334.81C1780.34 1339.37 1781.4 1343.31 1783.52 1346.62C1785.71 1349.94 1788.55 1352.72 1792.05 1354.97C1795.62 1357.16 1799.43 1359 1803.49 1360.5C1807.55 1361.94 1811.46 1363.12 1815.21 1364.06L1833.96 1368.94C1840.09 1370.44 1846.37 1372.47 1852.8 1375.03C1859.24 1377.59 1865.21 1380.97 1870.71 1385.16C1876.21 1389.34 1880.65 1394.53 1884.02 1400.72C1887.46 1406.91 1889.18 1414.31 1889.18 1422.94C1889.18 1433.81 1886.37 1443.47 1880.74 1451.91C1875.18 1460.34 1867.09 1467 1856.46 1471.88C1845.9 1476.75 1833.12 1479.19 1818.12 1479.19C1803.74 1479.19 1791.3 1476.91 1780.8 1472.34C1770.3 1467.78 1762.09 1461.31 1756.15 1452.94C1750.21 1444.5 1746.93 1434.5 1746.3 1422.94H1775.37C1775.93 1429.87 1778.18 1435.66 1782.12 1440.28C1786.12 1444.84 1791.21 1448.25 1797.4 1450.5C1803.65 1452.69 1810.49 1453.78 1817.93 1453.78C1826.12 1453.78 1833.4 1452.5 1839.77 1449.94C1846.21 1447.31 1851.27 1443.69 1854.96 1439.06C1858.65 1434.37 1860.49 1428.91 1860.49 1422.66C1860.49 1416.97 1858.87 1412.31 1855.62 1408.69C1852.43 1405.06 1848.09 1402.06 1842.59 1399.69C1837.15 1397.31 1830.99 1395.22 1824.12 1393.41L1801.43 1387.22C1786.05 1383.03 1773.87 1376.87 1764.87 1368.75C1755.93 1360.62 1751.46 1349.87 1751.46 1336.5C1751.46 1325.44 1754.46 1315.78 1760.46 1307.53C1766.46 1299.28 1774.59 1292.87 1784.84 1288.31C1795.09 1283.69 1806.65 1281.37 1819.52 1281.37C1832.52 1281.37 1843.99 1283.66 1853.93 1288.22C1863.93 1292.78 1871.8 1299.06 1877.55 1307.06C1883.3 1315 1886.3 1324.12 1886.55 1334.44H1858.62Z" fill="url(#paint3_radial_301_410)"/>
<defs>
<radialGradient id="paint0_radial_301_410" cx="0" cy="0" r="1" gradientUnits="userSpaceOnUse" gradientTransform="translate(1267 820) rotate(90) scale(539 562)">
<stop offset="0.505208" stop-color="#BB02C2"/>
<stop offset="0.744792" stop-color="#4FA6EC"/>
</radialGradient>
<radialGradient id="paint1_radial_301_410" cx="0" cy="0" r="1" gradientUnits="userSpaceOnUse" gradientTransform="translate(966.442 792.412) rotate(-57.0901) scale(342.5 929)">
<stop offset="0.505208" stop-color="#BB02C2"/>
<stop offset="0.744792" stop-color="#4FA6EC"/>
</radialGradient>
<radialGradient id="paint2_radial_301_410" cx="0" cy="0" r="1" gradientUnits="userSpaceOnUse" gradientTransform="translate(1570.92 800.973) rotate(-122.116) scale(342.5 929)">
<stop offset="0.505208" stop-color="#BB02C2"/>
<stop offset="0.744792" stop-color="#4FA6EC"/>
</radialGradient>
<radialGradient id="paint3_radial_301_410" cx="0" cy="0" r="1" gradientUnits="userSpaceOnUse" gradientTransform="translate(1272.5 1380) rotate(90) scale(160 630.5)">
<stop stop-color="#BB02C2"/>
<stop offset="1" stop-color="#4FA6EC"/>
</radialGradient>
</defs>
</svg>
